<svg xmlns="http://www.w3.org/2000/svg" xmlns:xlink="http://www.w3.org/1999/xlink" viewBox="422.1106 185.5 205.7788 211.1111" width="60.43398760178882" height="62" preserveAspectRatio="none"><defs/><style>.icon1xv87G1Yd6 {fill:#FA4A0C;fill-opacity:1;}.icon2xv87G1Yd6 {fill:#F35F40;fill-opacity:1;}.icon3xv87G1Yd6 {fill:#B2B2B1;fill-opacity:1;}</style><g opacity="1" transform="rotate(0 422.1106 185.5)">
<svg width="205.7788" height="211.1111" x="422.1106" y="185.5" version="1.1" preserveAspectRatio="none" viewBox="7.299999237060547 5.694999694824219 85.78498840332031 88.00800323486328">
  <g transform="matrix(1 0 0 1 0 0)" class="icon1xv87G1Yd6"><path d="M70.521,6.588c-7.655,0-12.524,2.485-14.291,3.576c-1.512-1.391-5.769-4.469-13.816-4.469  c-10.679,0-15.821,8.82-17.01,11.191C22.127,17.149,7.3,19.196,7.3,34.655c0,12.886,10.83,17.702,16.713,18.204v15.257  c0,0.553,0.447,1,1,1h44.913c0.553,0,1-0.447,1-1V52.877c13.755-0.602,22.159-13.511,22.159-22.832  C93.085,13.841,81.752,6.588,70.521,6.588z M68.926,67.116H26.013v-14.21h42.913C68.926,52.906,68.926,67.116,68.926,67.116z   M69.926,50.906h-0.049c6.81-3.374,10.016-9.735,10.804-13.322c0.119-0.54-0.223-1.073-0.762-1.191  c-0.537-0.116-1.073,0.222-1.191,0.762c-0.898,4.085-5.273,12.203-15.401,13.752H39.71c-5.51-1.137-7.897-6.966-7.897-9.708  c0-0.553-0.447-1-1-1s-1,0.447-1,1c0,2.545,1.574,7.029,5.172,9.708H31.49c-4.026-1.15-9.492-7.232-9.492-10.601  c0-0.553-0.447-1-1-1s-1,0.447-1,1c0,3.222,3.41,7.889,7.206,10.601h-2.192C20.09,50.906,9.3,46.814,9.3,34.655  c0-15.313,16.087-15.793,16.771-15.806c0.397-0.008,0.753-0.25,0.906-0.617c0.179-0.43,4.516-10.537,15.436-10.537  c9.153,0,12.873,4.351,12.906,4.391c0.342,0.419,0.954,0.49,1.382,0.165c0.049-0.037,4.944-3.663,13.819-3.663  c10.236,0,20.564,6.635,20.564,21.457C91.085,38.756,83.035,50.906,69.926,50.906z M69.948,38.098c-0.008,0-0.016,0-0.022,0  c-0.542,0-0.987,0.434-1,0.978c-0.027,1.264-1.438,4.469-3.925,5.839c-0.484,0.267-0.66,0.875-0.394,1.358  c0.183,0.331,0.524,0.518,0.877,0.518c0.163,0,0.329-0.04,0.481-0.124c3.006-1.656,4.915-5.512,4.96-7.546  C70.938,38.567,70.5,38.11,69.948,38.098z M77.912,80.319c-5.897,3.852-10.742,1.247-15.429-1.272  c-2.662-1.432-5.178-2.784-7.708-2.784c-3.182,0-5.771,1.791-6.85,4.461c-1.08-2.669-3.669-4.461-6.851-4.461  c-2.53,0-5.046,1.353-7.708,2.784c-4.686,2.519-9.532,5.123-15.428,1.272c-0.366-0.239-0.842-0.213-1.181,0.063  c-0.337,0.276-0.457,0.739-0.295,1.145c2.096,5.246,5.549,8.871,10.262,10.771c2.467,0.995,5.053,1.405,7.469,1.405  c2.875,0,5.511-0.58,7.423-1.443c2.014-0.908,5.094-2.758,6.319-5.876c0.958,2.385,3.135,4.448,6.299,5.876  c1.912,0.863,4.548,1.443,7.423,1.443c2.416,0,5.002-0.41,7.469-1.405c4.713-1.9,8.166-5.525,10.262-10.771  c0.162-0.405,0.042-0.868-0.295-1.145S78.278,80.08,77.912,80.319z M40.794,90.438c-3.031,1.366-8.49,1.953-13.321,0.006  c-3.356-1.354-6.001-3.711-7.89-7.024c5.712,2.234,10.654-0.422,14.73-2.612c2.435-1.309,4.733-2.545,6.761-2.545  c3.126,0,5.396,2.233,5.396,5.31C46.47,87.317,42.913,89.481,40.794,90.438z M68.378,90.444c-4.829,1.948-10.29,1.361-13.321-0.006  c-2.12-0.957-5.676-3.12-5.676-6.866c0-3.076,2.269-5.31,5.395-5.31c2.027,0,4.326,1.236,6.761,2.545  c4.077,2.193,9.016,4.846,14.731,2.612C74.38,86.733,71.734,89.091,68.378,90.444z"/></g>
</svg>
</g></svg>