<svg xmlns="http://www.w3.org/2000/svg" xmlns:xlink="http://www.w3.org/1999/xlink" viewBox="398.9776 185.5 252.0448 298.0392" width="52.43195391747126" height="62" preserveAspectRatio="none"><defs/><style>.icon1akw6s7EMr {fill:#FA4A0C;fill-opacity:1;}.icon2akw6s7EMr {fill:#637349;fill-opacity:1;}.icon3akw6s7EMr {fill:#795642;fill-opacity:1;}</style><g opacity="1" transform="rotate(0 398.9776 185.5)">
<svg width="252.0448" height="298.0392" x="398.9776" y="185.5" version="1.1" preserveAspectRatio="none" viewBox="18.760000228881836 13.038354873657227 62.47999572753906 73.88164520263672">
  <g transform="matrix(1 0 0 1 0 0)" class="icon1akw6s7EMr"><defs/><title>100icons2017</title><path class="a" d="M50,68.48c-15.36,0-31.24-3.86-31.24-10.32a.85.85,0,0,1,1.7,0c0,5.08,15.57,8.62,29.54,8.62s29.54-3.54,29.54-8.62a.85.85,0,0,1,1.7,0C81.24,64.62,65.36,68.48,50,68.48Z"/><path class="a" d="M50,86.92c-29,0-31.24-22-31.24-28.75,0-6.11,13.68-9.57,26.4-10.2a.85.85,0,1,1,.08,1.7c-15.51.77-24.78,4.92-24.78,8.5,0,8.13,2.88,27.05,29.54,27.05S79.54,66.3,79.54,58.16c0-3.15-7.26-7-21.15-8.25a.85.85,0,0,1,.15-1.69c13.79,1.24,22.69,5.15,22.69,9.94C81.24,64.91,79,86.92,50,86.92Z"/><path class="a" d="M40.64,65.55c-3,0-5.41-1.59-5.41-3.63s2.38-3.63,5.41-3.63S46,59.89,46,61.92,43.67,65.55,40.64,65.55Zm0-5.56c-2.19,0-3.71,1-3.71,1.93s1.52,1.93,3.71,1.93,3.71-1,3.71-1.93S42.83,60,40.64,60Z"/><path class="a" d="M46.71,68.14a.85.85,0,0,1-.23-1.67c2.82-.81,4.32-3.18,4.32-4.58,0-2.16-5.26-4.56-12.81-4.56S24.58,60.5,24.57,62.56a.85.85,0,0,1-.85.85h0a.85.85,0,0,1-.85-.85c0-3.62,7.23-6.92,15.12-6.92,8.27,0,14.51,2.69,14.51,6.26,0,2.22-2.12,5.23-5.55,6.22A.86.86,0,0,1,46.71,68.14Z"/><path class="a" d="M74.49,64.65A.85.85,0,0,1,74.13,63l.52-.25-.15,0c-1.15-.33-2.73-.79-3.53-2a3.78,3.78,0,0,1-.43-2.21c0-1.84,0-3.74-5.66-3.74h-.07a29.29,29.29,0,0,1-8-.76c-1.4-.45-1.7-1.08-1.7-1.53a.85.85,0,0,1,1.63-.35c.25.18,1.7.93,8.06.93h.06c6.78,0,7.35,2.8,7.36,5.43a3.18,3.18,0,0,0,.13,1.25A5.09,5.09,0,0,0,75,61.1c1,.3,1.95.56,2,1.44s-.7,1.36-2.14,2A.85.85,0,0,1,74.49,64.65ZM56.82,52.55h0Z"/><path class="a" d="M68.44,66.24c-2,0-3.13-.63-3.6-1.35a1.25,1.25,0,0,1-.06-1.42c1.12-1.68,3.7-1.68,4-1.68a.85.85,0,0,1,0,1.7h0a4.05,4.05,0,0,0-2.29.64c.45.27,1.61.64,3.82.22A.85.85,0,1,1,70.6,66,11.79,11.79,0,0,1,68.44,66.24Z"/><path class="a" d="M44.77,27.15a.85.85,0,0,1-.31-1.64l32-12.36A.85.85,0,1,1,77,14.73l-32,12.36A.86.86,0,0,1,44.77,27.15Z"/><path class="a" d="M44.77,27.15a.85.85,0,0,1-.31-1.64l32-12.36A.85.85,0,1,1,77,14.73l-32,12.36A.86.86,0,0,1,44.77,27.15Z"/><path class="a" d="M43.77,23.65a.85.85,0,0,1-.1-1.69l34-4a.85.85,0,0,1,.2,1.69l-34,4Z"/><path class="a" d="M62,67c-2.46,0-4-.35-4.65-1.28a2.2,2.2,0,0,1-.15-2.25C58,61.77,60,61.35,62,60.94s3.3-.74,3.49-1.66c0-.21,0-.28,0-.32-.62-.77-3.94-.83-6.61-.87-1.76,0-3.59-.06-5.23-.24-.82-.09-3.34-.37-3.76-2C49.49,54.36,51,53,51.79,52.34V22.27a.85.85,0,1,1,1.7,0V52.76a.85.85,0,0,1-.36.7c-.9.63-1.71,1.59-1.62,1.93,0,.15.52.57,2.3.77,1.56.17,3.34.2,5.06.23,3.79.06,6.79.11,7.91,1.51a2,2,0,0,1,.38,1.73c-.44,2.08-2.76,2.55-4.82,3-1.55.32-3.16.65-3.51,1.53-.07.17-.17.47-.06.61.72,1,6,.51,8.26.31a.85.85,0,1,1,.15,1.69C65.14,66.92,63.44,67,62,67Z"/><path class="a" d="M56,51.52a.85.85,0,0,1-.85-.85V22.38a.85.85,0,1,1,1.7,0V50.67A.85.85,0,0,1,56,51.52Z"/><path class="a" d="M45.73,55a.85.85,0,0,1-.65-1.39,10,10,0,0,1,3.08-2.52V24.88a.85.85,0,1,1,1.7,0V51.61a.85.85,0,0,1-.56.8,7.76,7.76,0,0,0-2.9,2.26A.85.85,0,0,1,45.73,55Z"/><path class="a" d="M56,52.85a.85.85,0,0,1-.85-.85v-.77a.85.85,0,1,1,1.7,0V52A.85.85,0,0,1,56,52.85Z"/></g>
</svg>
</g></svg>